<svg
  width="24"
  height="20"
  viewBox="0 0 24 20"
  xmlns="http://www.w3.org/2000/svg"
  class="svg-path"
>
  <style>
    .svg-path {
      fill: #242424;
    }
    @media (prefers-color-scheme: dark) {
      .svg-path {
        fill: #F2F0E8;
      }
    }
  </style>
  <path
    d="M8.417 0.364372V12.498C8.417 13.9474 8.31579 15.0283 8.11336 15.7409C7.91093 16.5506 7.5668 17.2348 7.08097 17.7935C6.1336 18.9028 4.87854 19.4575 3.31579 19.4575C2.1336 19.4575 1.02834 19.1498 0 18.5344L1.38462 16.1174C2.07287 16.5789 2.7166 16.8097 3.31579 16.8097C4.15789 16.8097 4.74089 16.4899 5.06478 15.8502C5.40486 15.2105 5.5749 14.0931 5.5749 12.498V0.364372H8.417Z"
  >
  </path>
  <path
    d="M23.5142 3.15789L21.2186 4.51822C20.7895 3.77328 20.3806 3.28745 19.9919 3.06073C19.587 2.80162 19.0648 2.67206 18.4251 2.67206C17.6397 2.67206 16.9879 2.89474 16.4696 3.34008C15.9514 3.77733 15.6923 4.32793 15.6923 4.9919C15.6923 5.90688 16.3725 6.64372 17.7328 7.20243L19.6032 7.96761C21.1255 8.583 22.2389 9.33603 22.9433 10.2267C23.6478 11.1093 24 12.1943 24 13.4818C24 15.2065 23.4251 16.6316 22.2753 17.7571C21.1174 18.8907 19.6802 19.4575 17.9636 19.4575C16.336 19.4575 14.9919 18.9757 13.9312 18.0121C12.8866 17.0486 12.2348 15.6923 11.9757 13.9433L14.8421 13.3117C14.9717 14.413 15.1984 15.1741 15.5223 15.5951C16.1053 16.4049 16.9555 16.8097 18.0729 16.8097C18.9555 16.8097 19.6883 16.5142 20.2713 15.9231C20.8543 15.332 21.1458 14.583 21.1458 13.6761C21.1458 13.3117 21.0931 12.9798 20.9879 12.6802C20.8907 12.3725 20.7328 12.0931 20.5142 11.8421C20.3036 11.583 20.0283 11.3441 19.6883 11.1255C19.3482 10.8988 18.9433 10.6842 18.4737 10.4818L16.664 9.72874C14.0972 8.64372 12.8138 7.05668 12.8138 4.96761C12.8138 3.5587 13.3522 2.38057 14.4291 1.4332C15.5061 0.477733 16.8462 0 18.4494 0C20.6113 0 22.2996 1.05263 23.5142 3.15789Z"
  ></path>
</svg>
